<svg xmlns="http://www.w3.org/2000/svg" width="18" height="18" fill="#fff"><path d="M15.94 17.75h-3.872a1.329 1.329 0 0 1-1.33-1.32v-5.268h-3.51v5.267a1.329 1.329 0 0 1-1.33 1.321H2.026A1.526 1.526 0 0 1 .5 16.224v-9.23a1.526 1.526 0 0 1 .615-1.222L8.155.555a1.526 1.526 0 0 1 1.829 0l6.9 5.21a1.542 1.542 0 0 1 .573 1.23v9.23a1.517 1.517 0 0 1-1.517 1.525Zm-3.79-1.395h3.806a.131.131 0 0 0 .123-.13v-9.23a.115.115 0 0 0-.049-.099l-6.916-5.21a.14.14 0 0 0-.156 0l-7.03 5.218a.14.14 0 0 0-.058.107v9.213a.131.131 0 0 0 .131.131h3.807v-5.332a1.263 1.263 0 0 1 1.255-1.255h3.815a1.264 1.264 0 0 1 1.272 1.255v5.332Z"/></svg>